<svg width="36" height="36" viewBox="0 0 36 36" fill="none" xmlns="http://www.w3.org/2000/svg">
<g id="fan icon">
<g clip-path="url(#clip0_29_123)">
<g id="Group">
<g id="Group_2">
<g id="Group_3">
<path id="Vector" d="M29.7585 19.7534C29.409 18.9082 28.3237 18.417 26.0115 18.0577C24.3389 17.7974 22.8397 17.1914 21.6352 16.707L21.6265 16.7035C21.7068 16.3987 21.7499 16.0789 21.7499 15.7493C21.7499 14.9173 21.4773 14.1482 21.0171 13.5257C21.4865 12.7276 22.3649 10.8413 22.1549 8.187C21.7739 3.41028 19.5389 2.82756 18.5969 2.79828C17.9775 2.76828 17.5176 2.961 17.2056 3.345C16.6529 4.02444 16.6762 5.15028 17.2889 7.64556C17.6496 9.11928 17.7119 10.6216 17.7592 11.829C17.7618 11.8896 17.7645 11.9488 17.7671 12.0079C16.4601 12.0884 15.3325 12.8408 14.7262 13.9236C13.6162 13.9268 11.6611 14.172 9.63974 15.5723C7.70474 16.9096 6.6863 18.1223 6.52502 19.278C6.44102 19.8794 6.5963 20.4397 6.97274 20.898C7.10318 21.0593 7.50374 21.5474 8.20718 21.6127C8.25974 21.618 8.31446 21.6203 8.36846 21.6203C9.18374 21.6203 10.1865 21.0607 11.757 19.7386C12.7545 18.8983 13.8708 18.2638 14.8279 17.7463C15.4927 18.799 16.6657 19.5 17.9999 19.5C18.3856 19.5 18.7578 19.4413 19.1082 19.3327C20.0735 20.7114 21.5591 21.8818 23.1682 22.512C24.3592 22.98 25.3785 23.2156 26.2566 23.2156C27.5669 23.2156 28.5629 22.6906 29.3422 21.6256C29.5306 21.3683 30.1035 20.5867 29.7585 19.7534ZM18.3413 4.31172C18.3429 4.31172 18.3946 4.28472 18.5483 4.296C19.6719 4.33056 20.4609 5.82828 20.658 8.304C20.7959 10.0304 20.379 11.5249 19.8709 12.502C19.6828 12.3931 19.4847 12.2995 19.2778 12.2244C19.2712 12.0781 19.2651 11.9262 19.2579 11.7683C19.2061 10.4926 19.1423 8.907 18.7449 7.287C18.1523 4.87428 18.3097 4.38 18.3413 4.31172ZM10.7917 18.5903C9.09518 20.0168 8.50718 20.1293 8.34602 20.1196C8.32058 20.1188 8.26802 20.1128 8.13158 19.947C8.0243 19.815 7.9853 19.6687 8.01002 19.4857C8.05574 19.1663 8.38658 18.2624 10.494 16.8067C11.7852 15.9116 13.1583 15.5228 14.2639 15.4381C14.2554 15.5408 14.25 15.6444 14.25 15.7493C14.25 15.9469 14.2656 16.141 14.2953 16.3304C13.2403 16.8979 11.9673 17.6021 10.7917 18.5903ZM15.75 15.7493C15.75 14.5096 16.7595 13.5 18 13.5C19.2406 13.5 20.25 14.5094 20.25 15.7493C20.25 16.9897 19.2406 18 18 18C16.7595 18 15.75 16.9897 15.75 15.7493ZM28.1333 20.7383C27.6833 21.3503 26.9273 22.3748 23.7157 21.1156C22.0045 20.445 20.9475 19.2936 20.4321 18.601C20.6257 18.4355 20.8023 18.2508 20.9589 18.0497L21.0766 18.0968C22.2841 18.5858 23.9393 19.2518 25.7829 19.5391C28.0666 19.8946 28.3516 20.2861 28.3681 20.3011C28.368 20.3056 28.3643 20.4247 28.1333 20.7383Z" fill="black"/>
<path id="Vector_2" d="M33.75 15.7515C33.75 7.06655 26.6843 -1.14441e-05 18 -1.14441e-05C9.31572 -1.14441e-05 2.25 7.06643 2.25 15.7515C2.25 22.1168 6.0456 27.612 11.4918 30.0935C11.4816 31.7667 10.6648 34.5 9.79728 34.5C9.38184 34.5 9.04728 34.8353 9.04728 35.25C9.04728 35.6647 9.38184 36 9.79728 36H18H26.9197C27.3337 36 27.6697 35.6647 27.6697 35.25C27.6697 34.8353 27.3344 34.5 26.9197 34.5C25.9177 34.5 24.8663 31.4213 24.8663 30.0615C24.8663 30.0168 24.8616 29.9733 24.8542 29.9307C30.1145 27.3773 33.75 21.9811 33.75 15.7515ZM24.7034 34.5H18H11.9017C12.56 33.3369 12.8728 31.7503 12.9631 30.6762C14.5453 31.2116 16.2394 31.5021 18 31.5021C19.8946 31.5021 21.712 31.1657 23.3959 30.5497C23.5056 31.5824 23.9239 33.2744 24.7034 34.5ZM18 30.0023C10.1423 30.0023 3.75 23.61 3.75 15.7515C3.75 7.89311 10.1423 1.49999 18 1.49999C25.8577 1.49999 32.25 7.89227 32.25 15.7515C32.25 23.6108 25.8577 30.0023 18 30.0023Z" fill="black"/>
</g>
</g>
</g>
</g>
</g>
<defs>
<clipPath id="clip0_29_123">
<rect width="36" height="36" rx="10" fill="white"/>
</clipPath>
</defs>
</svg>
