<svg width="36" height="36" viewBox="0 0 36 36" fill="none" xmlns="http://www.w3.org/2000/svg">
<g id="lightbulb icon">
<path id="Vector" d="M13.5 31.5C13.5 32.325 14.175 33 15 33H21C21.825 33 22.5 32.325 22.5 31.5V30H13.5V31.5ZM18 3C12.21 3 7.5 7.71 7.5 13.5C7.5 17.07 9.285 20.205 12 22.11V25.5C12 26.325 12.675 27 13.5 27H22.5C23.325 27 24 26.325 24 25.5V22.11C26.715 20.205 28.5 17.07 28.5 13.5C28.5 7.71 23.79 3 18 3ZM22.275 19.65L21 20.55V24H15V20.55L13.725 19.65C11.7 18.24 10.5 15.945 10.5 13.5C10.5 9.36 13.86 6 18 6C22.14 6 25.5 9.36 25.5 13.5C25.5 15.945 24.3 18.24 22.275 19.65Z" fill="black"/>
</g>
</svg>
